<svg
width="500"
height="500"
viewBox="0 0 500 500"
fill="none"
xmlns="http://www.w3.org/2000/svg"
>
    <path
    	id="path1"
    	d="M199.023 423.711C212.363 400.605 229.875 370.239 237.939 356.231C246.002 342.223 252.898 330.771 253.261 330.782C253.625 330.793 271.394 361.158 292.748 398.262L331.573 465.723H414.859H498.144L497.824 465.344C495.789 461.485 472.455 420.954 390.607 279.106C353.864 215.427 316.158 150.051 306.815 133.825C297.473 117.6 289.369 104.798 288.806 105.377C288.244 105.956 282.17 116.233 275.308 128.215L262.833 150L269.097 160.633C272.541 166.481 290.98 198.358 310.072 231.471C356.622 312.208 392.546 374.471 407.409 400.177L418.4 418.749L388.519 419.105C372.085 419.302 358.201 419.004 357.666 418.444C357.131 417.884 346.763 400.158 334.625 379.053C306.465 330.088 294.715 309.727 263.799 256.328C258.427 247.049 253.643 239.457 253.167 239.457C252.691 239.457 247.939 247.049 242.605 256.328C237.272 265.607 222.415 291.359 209.59 313.556C196.765 335.752 177.762 368.65 167.361 386.662L148.451 419.411H114.849C96.3678 419.411 81.247 419.019 81.247 418.54C81.247 418.061 85.9559 409.576 91.7113 399.685C118.49 353.661 235.117 151.29 235.66 149.904C236.102 148.777 213.052 106.596 210.276 103.452C209.945 103.077 200.284 119.706 113.587 269.89C14.6671 441.25 1.85571 463.579 1.85571 464.629C1.85571 465.23 40.761 465.722 88.3119 465.722H174.768L199.023 423.711Z"
    	fill="white"
    ></path>
    <path
    	id="path2"
    	d="M249.604 34.2773L236.184 57.5645L222.764 80.8516L235.547 103.295C242.578 115.64 248.492 125.574 248.687 125.371C248.884 125.168 255.018 116.403 262.318 103.834L275.592 80.9824L262.598 58.4727L249.604 34.2773Z"
    	fill="white"
    ></path>
</svg>
